<svg xmlns="http://www.w3.org/2000/svg">
  <symbol id="services-food" viewBox="0 0 75 70">
    <path fill="#83B3D3"
          d="M70.576 46.7H4.61C2.305 46.7.5 48.6.5 51v3.5c0 2.4 1.905 4.3 4.11 4.3h.903v1.1c0 5.5 4.31 10.1 9.624 10.1h44.712c5.313 0 9.624-4.5 9.624-10.1v-1.1h.902c2.306 0 4.11-1.9 4.11-4.3V51c.201-2.3-1.704-4.3-3.91-4.3Zm-3.91 13.2c0 3.9-3.008 7-6.717 7H15.137c-3.71 0-6.717-3.2-6.717-7v-1.1h58.246v1.1Zm5.113-5.4c0 .7-.602 1.3-1.203 1.3H4.51c-.702 0-1.203-.6-1.203-1.3V51c0-.7.602-1.3 1.203-1.3h65.965c.702 0 1.203.6 1.203 1.3.1 0 .1 3.5.1 3.5ZM16.14 38.4l5.413 4.1 5.313-4.1 5.313 4.1 5.314-4.1 5.413 4.1 5.314-4.1 5.313 4.1 5.413-4.1 5.314 4.1 6.215-4.7-1.704-2.5-4.511 3.4-5.314-4.1-5.413 4.1-5.313-4.1-5.314 4.1-5.413-4.1-5.314 4.1-5.313-4.1-5.313 4.1-5.414-4.1-5.313 4.1-4.511-3.4-1.705 2.5 6.216 4.7 5.313-4.1ZM8.52 31.5h60.953c0-.6.1-1.2.1-1.9v-1.2C68.871 12.7 54.836 0 37.593 0 20.249 0 6.214 12.7 5.513 28.5v1.2c0 .6-.005 1.2.095 1.8H8.52ZM37.593 3c15.64 0 28.471 11.3 29.073 25.5H8.52C9.122 14.4 21.954 3 37.593 3Z"/>
    <path fill="#83B3D3"
          d="M37.593 17.3c1.052 0 1.905-.895 1.905-2s-.853-2-1.905-2-1.905.895-1.905 2 .853 2 1.905 2ZM29.773 12.2c1.052 0 1.905-.895 1.905-2s-.853-2-1.905-2-1.904.895-1.904 2 .852 2 1.904 2ZM45.312 12.2c1.052 0 1.905-.895 1.905-2s-.853-2-1.905-2-1.904.895-1.904 2 .852 2 1.904 2Z"/>
  </symbol>
  <symbol id="services-gifts" viewBox="0 0 65 76">
    <path fill="#83B3D3"
          d="M61.6 22.462H36.8c13.8-6.904 14.9-11.307 14.4-13.71-1.2-4.002-5.7-7.004-10-5.403-5.6 2.102-7.1 10.407-8.6 16.412-2-6.105-3.8-13.81-8.2-17.713-1.3-1.1-3.1-2.301-5.8-2.001-4 .4-9.8 5.404-7.5 11.008 2.3 5.403 9.7 8.806 14.6 11.508H3.4c-1.6 0-2.9 1.3-2.9 2.902v11.308c0 1.6 1.3 2.901 2.9 2.901h.3V76h57.8V39.574h.1c1.6 0 2.9-1.3 2.9-2.902V25.365c0-1.602-1.3-2.902-2.9-2.902ZM42.9 5.851c2.1-.3 5 1.3 5.3 3.202.4 2.802-3.4 5.304-5.1 6.405-2.5 1.7-4.9 2.601-7.3 4.102.9-3.702 2.5-13.009 7.1-13.71ZM20 15.858c-2.2-1.501-6.5-4.403-6.4-7.806.1-3.602 5.7-6.604 8.8-3.902 3.9 3.402 5.7 11.107 7.1 16.611-3.2-1.5-6.3-2.802-9.5-4.903Zm6 57.14H6.6V39.574H26v33.424Zm0-36.526H3.5V25.465H26v11.007Zm10.2 0v36.526H29V25.565h7.2v10.907Zm22.3 36.526H39.1V39.574h19.4v33.424Zm2.9-36.526H39.1V25.465h22.3v11.007Z"/>
  </symbol>
  <symbol id="services-house" viewBox="0 0 76 72">
    <path fill="#83B3D3" d="M30.119 65h16.064V41.2H30.119V65Zm2.911-20.9h10.14v18H33.03v-18Z"/>
    <path fill="#83B3D3"
          d="m73.392 39.3 2.108-2.1-9.94-9.9V0H51.604v13.6L37.95 0 .5 37.2l2.108 2.1 7.832-7.8v37.6H6.424V72H70.58v-2.9h-5.12V31.5l7.932 7.8ZM62.548 69.1H13.351V28.5L37.95 4.1l24.598 24.4v40.6Zm0-44.7-7.931-7.9V2.9h7.931v21.5Z"/>
    <path fill="#83B3D3"
          d="M30.32 27.1c0 4.3 3.513 7.7 7.73 7.7 4.318 0 7.832-3.5 7.832-7.7 0-4.3-3.514-7.7-7.832-7.7-4.217 0-7.73 3.4-7.73 7.7Zm7.83-5c2.711 0 5.02 2.2 5.02 4.9s-2.208 4.9-5.02 4.9c-2.71 0-5.02-2.2-5.02-4.9s2.21-4.9 5.02-4.9ZM20.48 41.2h-3.012v3.9h3.012v-3.9ZM26.404 41.2h-3.012v3.9h3.012v-3.9ZM20.48 47.2h-3.012v3.9h3.012v-3.9ZM26.404 47.2h-3.012v3.9h3.012v-3.9ZM52.508 41.2h-3.012v3.9h3.012v-3.9ZM58.432 41.2H55.42v3.9h3.012v-3.9ZM52.508 47.2h-3.012v3.9h3.012v-3.9ZM58.432 47.2H55.42v3.9h3.012v-3.9Z"/>
  </symbol>
</svg>
